HIERARCHY
ROOT Hips
{
  OFFSET 3.13124 94.3669 -3.18751
  CHANNELS  6 Xposition Yposition Zposition Zrotation Xrotation Yrotation
  JOINT LeftUpLeg
  {
    OFFSET 8.64259 1.95398 -2.38835
    CHANNELS 3 Zrotation Xrotation Yrotation
    JOINT LeftLeg
    {
      OFFSET 43.7702 0 0
      CHANNELS 3 Zrotation Xrotation Yrotation
      JOINT LeftFoot
      {
        OFFSET 40.6238 0 0
        CHANNELS 3 Zrotation Xrotation Yrotation
        JOINT LeftToeBase
        {
          OFFSET 12.7242 0 0
          CHANNELS 3 Zrotation Xrotation Yrotation
          End Site
          {
            OFFSET 0 0 0
          }
        }
      }
    }
  }
  JOINT RightUpLeg
  {
    OFFSET -8.2249 1.95398 -2.59336
    CHANNELS 3 Zrotation Xrotation Yrotation
    JOINT RightLeg
    {
      OFFSET 43.5653 0 0
      CHANNELS 3 Zrotation Xrotation Yrotation
      JOINT RightFoot
      {
        OFFSET 40.6238 0 0
        CHANNELS 3 Zrotation Xrotation Yrotation
        JOINT RightToeBase
        {
          OFFSET 12.7242 0 0
          CHANNELS 3 Zrotation Xrotation Yrotation
          End Site
          {
            OFFSET 0 0 0
          }
        }
      }
    }
  }
  JOINT Spine
  {
    OFFSET 0.165834 0.87714 6.61349
    CHANNELS 3 Zrotation Xrotation Yrotation
    JOINT Spine1
    {
      OFFSET 7.38962 1.71661e-005 0
      CHANNELS 3 Zrotation Xrotation Yrotation
      JOINT Spine2
      {
        OFFSET 11.9445 1.14441e-005 0
        CHANNELS 3 Zrotation Xrotation Yrotation
        JOINT Spine3
        {
          OFFSET 14.7254 4.19617e-005 0
          CHANNELS 3 Zrotation Xrotation Yrotation
          JOINT Spine4
          {
            OFFSET 10.9679 0 0
            CHANNELS 3 Zrotation Xrotation Yrotation
            JOINT RightShoulder
            {
              OFFSET 2.46616 -1.6653 3.69651
              CHANNELS 3 Zrotation Xrotation Yrotation
              JOINT RightArm
              {
                OFFSET 13.0012 0 0
                CHANNELS 3 Zrotation Xrotation Yrotation
                JOINT RightForeArm
                {
                  OFFSET 28.7848 1.52588e-005 0
                  CHANNELS 3 Zrotation Xrotation Yrotation
                  JOINT RightHand
                  {
                    OFFSET 26.5688 1.52588e-005 0
                    CHANNELS 3 Zrotation Xrotation Yrotation
                    End Site
                    {
                      OFFSET 0 0 0
                    }
                  }
                }
              }
            }
            JOINT LeftShoulder
            {
              OFFSET 2.38034 -1.29275 -3.75231
              CHANNELS 3 Zrotation Xrotation Yrotation
              JOINT LeftArm
              {
                OFFSET 16.3182 6.10352e-005 0
                CHANNELS 3 Zrotation Xrotation Yrotation
                JOINT LeftForeArm
                {
                  OFFSET 27.0901 0 0
                  CHANNELS 3 Zrotation Xrotation Yrotation
                  JOINT LeftHand
                  {
                    OFFSET 24.5451 1.52588e-005 0
                    CHANNELS 3 Zrotation Xrotation Yrotation
                    End Site
                    {
                      OFFSET 0 0 0
                    }
                  }
                }
              }
            }
            JOINT Neck
            {
              OFFSET 5.0226 -0.0266342 0
              CHANNELS 3 Zrotation Xrotation Yrotation
              JOINT Head
              {
                OFFSET 6.69363 2.86102e-005 0
                CHANNELS 3 Zrotation Xrotation Yrotation
                End Site
                {
                  OFFSET 0 0 0
                }
              }
            }
          }
        }
      }
    }
  }
}
MOTION
Frames:	13
Frame Time:	0.0333333
-24.5197 81.3365 -27.5575 53.7993 89.5753 133.508 175.671 53.8174 111.102 -65.2157 67.1049 -0.874702 69.3041 -36.3667 31.5049 28.7808 8.74008e-006 4.9355e-006 179.129 45.1785 95.5595 -46.6963 -9.41691 8.97089 59.9002 -7.26561 -3.71424 28.7808 2.12354e-005 2.69953e-005 2.61804 10.0233 -92.9822 6.6319 1.92579 -0.436202 -5.03771 1.90493 -0.521883 -27.5847 1.96628 0.171923 -7.57202 1.96628 0.171883 102.156 -18.2397 -82.127 54.4825 -67.709 -6.14259 -79.184 -16.3609 -51.5675 3.03137 65.2301 0.41307 -77.7557 -21.1186 97.0944 -46.376 26.5086 -1.82685 15.0877 1.72706 -80.5785 -13.6481 -2.73086 21.6603 44.5522 -1.64212 -12.2661 8.59899 6.56987 15.7405 
-24.6191 81.8495 -29.2879 -167.193 87.7826 -5.6032 178.968 46.4622 107.343 -65.2248 67.7875 2.38277 78.0719 -23.9399 41.1715 28.7808 8.74008e-006 4.9355e-006 176.685 42.0875 96.7709 -49.0131 -7.74845 8.5056 60.6547 -8.30904 -4.34098 28.7808 2.12354e-005 2.69953e-005 1.91542 10.3028 -92.7694 6.14007 1.2224 -0.13975 -5.53034 1.21453 -0.194239 -28.07 1.21129 0.240041 -8.05741 1.21128 0.240019 102.156 -18.2397 -82.127 61.8585 -66.4351 0.671795 -92.0476 -19.4498 -56.9809 -1.63539 73.2313 5.03881 -77.7557 -21.1186 97.0944 -49.7594 22.7845 4.64834 7.552 0.756094 -75.0768 -18.2798 -2.80949 15.276 36.8189 -1.01149 -16.3713 10.352 8.68718 17.3567 
-24.3062 82.2768 -30.9736 58.7915 87.0737 130.417 -179.799 46.1755 110.369 -58.489 47.4654 -2.61567 79.559 -9.84483 28.4706 28.7808 8.74008e-006 4.9355e-006 178.274 44.7394 99.7399 -48.1454 -6.86197 7.87249 61.1102 -7.30453 -3.81417 28.7808 2.12354e-005 2.69953e-005 1.56033 9.74007 -92.0484 7.30599 1.09635 -0.211909 -4.36453 1.08597 -0.260842 -26.9034 1.11299 0.129256 -6.89078 1.11298 0.129247 102.156 -18.2397 -82.127 64.0734 -64.8859 3.94216 -77.7913 -9.696 -56.5929 1.38277 56.0778 0.877518 -77.7557 -21.1186 97.0944 -52.4619 20.1763 8.85802 0.876159 -1.35823 -70.2 -22.5749 -4.22317 18.5204 32.4349 0.338703 -20.4484 10.1148 11.2109 18.7312 
-24.7015 84.2051 -31.8182 47.2003 87.4775 141.566 -178.898 43.717 108.458 -53.2937 56.6964 -3.84313 78.6955 -13.0048 39.1422 28.7808 8.74008e-006 4.9355e-006 179.344 41.7437 98.4219 -43.696 -6.53895 7.52721 59.275 -6.52493 -3.48533 28.7808 2.12354e-005 2.69953e-005 1.0558 9.55505 -91.6964 7.71171 0.493651 -0.0659124 -3.95915 0.490254 -0.0875423 -26.495 0.490751 0.0806213 -6.48243 0.490743 0.0805897 102.156 -18.2397 -82.127 66.0998 -62.2079 8.89922 -71.0881 -3.59521 -58.0981 15.3012 50.1924 -12.2679 -77.7557 -21.1186 97.0944 -52.3798 19.4568 11.2049 4.3934 -0.0228033 -71.6061 -29.0295 -5.57264 18.5716 29.5562 1.55126 -20.553 8.78146 11.5748 17.6588 
-25.2123 86.8617 -33.3475 38.4463 88.7812 149.088 -177.303 37.7435 105.641 -45.2982 59.4072 -4.49609 78.6471 -15.0707 41.1632 28.7808 8.74008e-006 4.9355e-006 -179.176 36.3481 96.6463 -37.8626 -5.95181 5.92673 57.4999 -5.15691 -2.71628 28.7808 2.12354e-005 2.69953e-005 0.8829 9.38155 -91.6227 8.06813 0.336559 0.211782 -3.60279 0.345851 0.19647 -26.1381 0.255341 0.305469 -6.12542 0.255339 0.305461 102.156 -18.2397 -82.127 68.8275 -55.626 15.8318 -63.9404 1.36493 -63.194 20.9927 48.5981 -21.9725 -77.7557 -21.1186 97.0944 -51.6928 19.2156 11.0496 10.443 2.09363 -72.634 -39.2801 -7.36776 17.3549 26.7118 1.3496 -19.3969 6.85122 10.045 16.2472 
-25.9467 89.9336 -35.4452 154.651 89.2162 31.8625 -175.912 29.1326 104.133 -36.1101 44.6052 -4.89335 73.3108 -12.9571 25.2599 28.7808 8.74008e-006 4.9355e-006 -177.668 28.0358 95.9969 -29.0608 -5.87639 3.06116 55.6198 -2.37212 -0.979648 28.7808 2.12354e-005 2.69953e-005 0.581001 9.07537 -91.4071 8.70199 0.184437 0.13168 -2.96896 0.189427 0.122528 -25.5041 0.140512 0.183147 -5.49145 0.140509 0.183146 102.156 -18.2397 -82.127 69.9236 -57.2265 21.2388 -56.7484 -1.08934 -63.5063 12.5271 60.3104 -30.5459 -77.7557 -21.1186 97.0944 -52.5785 17.5515 12.4225 12.9363 3.6605 -69.8148 -44.0802 -6.11988 11.3939 15.3789 3.56535 -13.856 11.2577 8.77344 12.3025 
-26.9481 92.88 -38.6411 -151.957 84.0598 -22.057 -174.194 18.1483 102.176 -29.1526 23.7081 -3.03906 68.7096 -7.14236 3.82005 28.7808 8.74008e-006 4.9355e-006 -179.481 14.5131 94.6875 -17.0334 -8.28933 2.91669 53.3232 -0.895153 0.0976895 28.7808 2.12354e-005 2.69953e-005 -0.24412 9.31551 -91.0469 8.2652 -0.922509 0.454753 -3.40553 -0.901584 0.494904 -25.9432 -1.01663 0.156401 -5.93056 -1.01665 0.156359 102.156 -18.2397 -82.127 69.6236 -63.5303 21.3629 -46.736 -2.71734 -61.7619 -6.91553 47.7182 -15.2512 -77.7557 -21.1186 97.0944 -52.0046 13.2239 15.6621 9.4608 2.78871 -66.2228 -42.2296 -5.04485 9.23982 14.1894 4.34186 -18.9611 4.87893 10.4717 17.1714 
-27.6776 94.0453 -40.1997 77.3095 87.7641 108.146 -174.249 18.7967 101.9 -24.3947 9.52899 -4.75804 68.7292 -4.67091 -6.11052 28.7808 8.74008e-006 4.9355e-006 -176.555 16.8437 93.9093 -11.7838 -11.9171 1.84624 52.0152 1.43302 1.74869 28.7808 2.12354e-005 2.69953e-005 0.0986496 8.2433 -90.4568 10.384 -0.0419814 0.210509 -1.28691 -0.0330668 0.212054 -23.822 -0.101645 0.189251 -3.80937 -0.101654 0.189232 102.156 -18.2397 -82.127 71.9726 -70.1437 22.7664 -42.6231 -3.52426 -53.3214 -9.29727 39.5788 -7.31996 -77.7557 -21.1186 97.0944 -52.9973 10.53 14.9737 3.91216 0.488147 -58.1685 -37.1369 -5.2259 11.9184 12.2714 5.22294 -15.4121 2.12626 9.61752 15.3127 
-28.5766 94.5285 -42.0464 89.128 87.4576 95.2538 -173.95 14.137 100.664 -20.5492 1.90618 -5.12204 69.3529 -3.91161 -12.806 28.7808 8.74008e-006 4.9355e-006 -178.164 13.9875 92.4078 -10.1098 -12.1845 1.89528 53.9419 3.08075 2.81598 28.7808 2.12354e-005 2.69953e-005 0.122754 8.04418 -90.3565 10.7829 0.105909 0.106162 -0.888083 0.110469 0.101397 -23.4232 0.0691298 0.133053 -3.41051 0.0691381 0.13304 102.156 -18.2397 -82.127 71.5013 -69.8924 24.9277 -45.9762 -6.01325 -54.317 -8.41889 61.3434 -5.32668 -77.7557 -21.1186 97.0944 -54.0018 12.6541 18.097 3.67328 0.0441754 -63.7859 -31.1719 -4.41013 12.3278 13.6627 5.37472 -13.7501 -1.00399 9.06064 14.7494 
-29.2361 94.5916 -42.9918 121.358 86.3279 62.3751 -173.425 9.96393 100.638 -17.7669 -0.403283 -6.65363 68.7612 -6.03715 -12.606 28.7808 8.74008e-006 4.9355e-006 179.307 10.6811 91.1866 -7.97676 -9.93941 2.98782 53.2126 4.08941 3.48619 28.7808 2.12354e-005 2.69953e-005 0.225182 8.01547 -90.2468 10.8396 0.382458 -0.00438137 -0.831309 0.38198 -0.0211639 -23.3668 0.365569 0.111478 -3.35418 0.365569 0.111463 102.156 -18.2397 -82.127 69.5921 -55.9639 26.4344 -48.3911 -3.87416 -66.2923 -6.81745 54.7543 -6.74961 -77.7557 -21.1186 97.0944 -54.362 15.9669 23.7265 -2.16637 -2.27488 -74.8712 -28.0879 -5.19211 17.8243 13.8797 5.11287 -13.9359 -1.65472 8.81062 15.1467 
-29.8072 94.5972 -43.6355 113.78 87.2243 69.201 -173.448 9.9606 99.2248 -17.3745 -1.19561 -6.24616 69.2822 -4.98781 -14.0018 28.7808 8.74008e-006 4.9355e-006 177.862 11.2698 89.907 -8.86947 -11.1504 3.2395 55.3149 4.54243 3.74806 28.7808 2.12354e-005 2.69953e-005 0.243292 7.64863 -90.3079 11.575 0.375502 -0.0166084 -0.0959074 0.374371 -0.0331235 -22.6315 0.363374 0.0970864 -2.61882 0.363363 0.0970854 102.156 -18.2397 -82.127 66.4235 -44.304 26.38 -13.9962 -3.45883 -75.4994 -11.882 10.435 -11.339 -77.7557 -21.1186 97.0944 -55.0031 17.8168 29.8464 -4.37823 -2.08469 -82.9874 -23.2534 -4.59349 19.7864 13.7751 5.04665 -12.4362 -4.98802 7.9474 13.2063 
-30.3517 94.6506 -44.3754 155.271 87.4678 27.9526 -173.346 9.06562 98.9167 -18.3166 1.05042 -5.84737 69.829 -3.31381 -12.9099 28.7808 8.74008e-006 4.9355e-006 177.439 9.89762 89.7564 -10.1886 -11.0379 3.0167 56.6841 4.06111 3.32144 28.7808 2.12354e-005 2.69953e-005 0.203529 7.56473 -90.6004 11.7413 0.213794 -0.26027 0.0703624 0.202743 -0.269137 -22.4648 0.278243 -0.185023 -2.45218 0.27821 -0.185043 102.156 -18.2397 -82.127 69.5784 -44.8037 27.731 -18.4194 -5.83507 -70.8203 -19.1129 23.0829 -4.0591 -77.7557 -21.1186 97.0944 -57.0395 17.5489 31.811 -5.7376 -2.55522 -81.1406 -18.4693 -4.08391 23.6387 11.5404 5.09319 -10.1997 -6.60456 7.08241 11.4759 
-30.7003 94.5247 -44.9591 127.066 89.1741 56.7034 -173.621 11.7012 98.7209 -20.0739 3.36678 -5.5774 70.35 -1.26905 -10.4902 28.7808 8.74008e-006 4.9355e-006 178.625 11.8768 90.3118 -11.0268 -10.3369 2.79972 56.5324 3.1388 2.69217 28.7808 2.12354e-005 2.69953e-005 0.286673 7.38613 -90.6904 12.0977 0.266982 -0.461154 0.426733 0.245012 -0.47443 -22.1082 0.396558 -0.358771 -2.09553 0.396543 -0.3588 102.156 -18.2397 -82.127 70.4554 -47.5751 26.617 -1.24339 -0.737324 -66.6856 -16.5168 13.2885 -9.85626 -77.7557 -21.1186 97.0944 -58.2453 16.9365 28.8014 -7.12088 -3.74186 -75.2812 -22.3878 -5.99321 28.2659 14.7915 4.60363 -9.87432 -9.48653 6.53915 11.1988 
